<svg width="1468" height="259" viewBox="0 0 1468 259" fill="none" xmlns="http://www.w3.org/2000/svg">
<path d="M428.191 177.862H343.38L332.044 202.981H301L369.944 56.939H401.397L471.57 202.981H440.526L428.191 177.862ZM417.348 154.139L385.171 88.2966L355.222 154.139H417.348Z" fill="black"/>
<path d="M569 161H523V203H494L493 57H577C616 57 633 82.955 633 108C633 129 628 133 622.5 141C616.396 147.886 613.5 151.5 600.5 156L632.5 203H596L569 161ZM523.5 134.5H572C591.379 134.5 602 124.5 602 109C602 95 596.383 91.2552 591.5 88C586.77 84.7448 573.766 83 564 83H523.5V134.5Z" fill="black"/>
<path d="M832.647 57.6292V202.981H803.831V97.3768L750.825 149.463H750.574L697.025 97.7524V201.981H668.21V57.6292H697.374L750.043 110.598L803.711 57.6292H832.647Z" fill="black"/>
<path d="M948.426 204.173C929.809 204.173 914.016 199.981 901.046 193.596C888.228 187.085 878.539 177.259 871.977 166.116C865.568 154.848 862.364 143.14 862.364 128.993C862.364 115.096 865.568 102.576 871.977 91.433C878.539 80.2903 888.304 70.4637 901.275 63.9533C914.245 57.3178 929.962 54 948.426 54C966.737 54 982.301 57.3178 995.119 63.9533C1008.09 70.4637 1017.86 80.3529 1024.42 91.6208C1030.98 102.764 1034.26 115.221 1034.26 128.993C1034.26 143.14 1030.98 154.848 1024.42 166.116C1017.86 177.259 1008.09 187.085 995.119 193.596C982.301 199.981 966.737 204.173 948.426 204.173ZM948.426 178.825C959.565 178.825 969.102 176.572 977.037 172.065C985.124 167.557 992.228 161.36 996.348 153.472C1000.62 145.46 1002.76 138.445 1002.76 128.429C1002.76 118.789 1001.62 113.15 997.348 105.513C993.075 97.7508 985.895 91.616 977.808 87.1088C969.873 82.6017 959.412 80.3481 948.426 80.3481C936.981 80.3481 927.215 82.6017 919.128 87.1088C911.041 91.616 903.937 97.8134 899.817 105.701C895.85 113.463 893.866 119.227 893.866 128.993C893.866 144.392 899.444 154.912 908.599 164.553C917.907 174.068 931.183 178.825 948.426 178.825Z" fill="black"/>
<path d="M1139.5 161L1094.5 161.5L1094 203H1064.5L1064 57H1145C1185.89 57 1204.5 80.0789 1204.5 109C1204.5 119.767 1201.5 133.5 1191.5 143C1185.4 149.886 1180.5 153 1171.5 156.5L1203.38 202.981H1166.91L1139.5 161ZM1094 135H1144.5C1163.88 135 1173 123 1173 108C1173.5 95.5 1165.38 90.2552 1160.5 87C1155.77 83.7448 1144.27 83 1134.5 83H1094V135Z" fill="black"/>
<path d="M1235.43 56.6292H1265.24V202.981H1235.43V56.6292Z" fill="black"/>
<path d="M1460 126C1460 138.144 1458.5 147.5 1455 157.5C1450.12 167.641 1447.5 172.5 1442 179.5L1468 202.5H1430.39L1422 194.5C1412.23 197.38 1406 204 1379.5 204.5C1357 204.5 1346.47 201.385 1333.5 195C1320.68 188.49 1310.17 178.259 1303.61 167.116C1297.2 155.848 1294 143.14 1294 128.993C1294 115.096 1297.2 102.576 1303.61 91.433C1310.17 80.2903 1320.94 71.4637 1333.91 64.9533C1346.88 58.3178 1357.54 55.5 1376 55.5C1394.31 55.5 1408.68 58.8644 1421.5 65.5C1434.47 72.0104 1444.44 81.2321 1451 92.5C1456 104 1458 107.5 1460 126ZM1322.89 128.993C1322.89 144.392 1328.24 154.36 1337.39 164C1346.7 173.515 1360.26 178.5 1377.5 178.5C1387 178 1396.19 175.751 1400 175L1358.89 137H1395.89L1420.39 160C1424.89 154.5 1425.15 154.386 1427.89 147.5C1430.79 140.614 1430.39 134.763 1430.39 126.5C1430.39 116.86 1429.39 115.5 1426.98 109.513C1422.71 101.751 1417.59 94.5072 1409.5 90C1401.57 85.4928 1387.49 81 1376.5 81C1365.06 81 1357.59 82.4928 1349.5 87C1341.41 91.5072 1333.62 96.6124 1329.5 104.5C1325.53 112.262 1322.89 119.227 1322.89 128.993Z" fill="black"/>
<path d="M61.5 152.5L90 111L116.5 149.5L143 111L169 149.5L197.5 108.5" stroke="#D97D55" stroke-width="22" stroke-linecap="round"/>
<circle cx="129.5" cy="129.5" r="118.5" stroke="#D97D55" stroke-width="22"/>
</svg>
